<svg width="16" height="16" viewBox="0 0 16 16" fill="none" xmlns="http://www.w3.org/2000/svg">
<g id="Export">
<path id="Vector 9" d="M8.00033 3.33301L7.47 2.80268L8.00033 2.27235L8.53066 2.80268L8.00033 3.33301ZM8.75033 9.33301C8.75033 9.74722 8.41454 10.083 8.00033 10.083C7.58611 10.083 7.25033 9.74722 7.25033 9.33301L8.75033 9.33301ZM4.13666 6.13601L7.47 2.80268L8.53066 3.86334L5.19732 7.19667L4.13666 6.13601ZM8.53066 2.80268L11.864 6.13601L10.8033 7.19667L7.47 3.86334L8.53066 2.80268ZM8.75033 3.33301L8.75033 9.33301L7.25033 9.33301L7.25033 3.33301L8.75033 3.33301Z" fill="#353535"/>
<path id="Vector 114" d="M3.33301 10.667L3.33301 11.3337C3.33301 12.07 3.92996 12.667 4.66634 12.667L11.333 12.667C12.0694 12.667 12.6663 12.07 12.6663 11.3337V10.667" stroke="#353535" stroke-width="1.5"/>
</g>
</svg>
